<mxfile host="app.diagrams.net" agent="Mozilla/5.0 (Windows NT 10.0; Win64; x64) AppleWebKit/537.36 (KHTML, like Gecko) Chrome/137.0.0.0 Safari/537.36" version="27.1.6">
  <diagram name="Sayfa -1" id="bWKx7CIMcWORp9F2Ryty">
    <mxGraphModel dx="1281" dy="596" grid="1" gridSize="10" guides="1" tooltips="1" connect="1" arrows="1" fold="1" page="1" pageScale="1" pageWidth="827" pageHeight="1169" math="0" shadow="0">
      <root>
        <mxCell id="0" />
        <mxCell id="1" parent="0" />
        <mxCell id="vk-0SVEYOAHC3kKjKISw-1" value="Guest" style="swimlane;fontStyle=1;align=center;verticalAlign=top;childLayout=stackLayout;horizontal=1;startSize=36.8;horizontalStack=0;resizeParent=1;resizeParentMax=0;resizeLast=0;collapsible=0;marginBottom=0;" vertex="1" parent="1">
          <mxGeometry x="73" y="20" width="160" height="192.8" as="geometry" />
        </mxCell>
        <mxCell id="vk-0SVEYOAHC3kKjKISw-2" value="+Name" style="text;strokeColor=none;fillColor=none;align=left;verticalAlign=top;spacingLeft=4;spacingRight=4;overflow=hidden;rotatable=0;points=[[0,0.5],[1,0.5]];portConstraint=eastwest;" vertex="1" parent="vk-0SVEYOAHC3kKjKISw-1">
          <mxGeometry y="36.8" width="160" height="37" as="geometry" />
        </mxCell>
        <mxCell id="vk-0SVEYOAHC3kKjKISw-3" value="+ContactDetails" style="text;strokeColor=none;fillColor=none;align=left;verticalAlign=top;spacingLeft=4;spacingRight=4;overflow=hidden;rotatable=0;points=[[0,0.5],[1,0.5]];portConstraint=eastwest;" vertex="1" parent="vk-0SVEYOAHC3kKjKISw-1">
          <mxGeometry y="73.8" width="160" height="37" as="geometry" />
        </mxCell>
        <mxCell id="vk-0SVEYOAHC3kKjKISw-4" value="+IsRegistered" style="text;strokeColor=none;fillColor=none;align=left;verticalAlign=top;spacingLeft=4;spacingRight=4;overflow=hidden;rotatable=0;points=[[0,0.5],[1,0.5]];portConstraint=eastwest;" vertex="1" parent="vk-0SVEYOAHC3kKjKISw-1">
          <mxGeometry y="110.8" width="160" height="37" as="geometry" />
        </mxCell>
        <mxCell id="vk-0SVEYOAHC3kKjKISw-5" style="line;strokeWidth=1;fillColor=none;align=left;verticalAlign=middle;spacingTop=-1;spacingLeft=3;spacingRight=3;rotatable=0;labelPosition=right;points=[];portConstraint=eastwest;strokeColor=inherit;" vertex="1" parent="vk-0SVEYOAHC3kKjKISw-1">
          <mxGeometry y="147.8" width="160" height="8" as="geometry" />
        </mxCell>
        <mxCell id="vk-0SVEYOAHC3kKjKISw-6" value="+makeBooking()" style="text;strokeColor=none;fillColor=none;align=left;verticalAlign=top;spacingLeft=4;spacingRight=4;overflow=hidden;rotatable=0;points=[[0,0.5],[1,0.5]];portConstraint=eastwest;" vertex="1" parent="vk-0SVEYOAHC3kKjKISw-1">
          <mxGeometry y="155.8" width="160" height="37" as="geometry" />
        </mxCell>
        <mxCell id="vk-0SVEYOAHC3kKjKISw-7" value="Booking" style="swimlane;fontStyle=1;align=center;verticalAlign=top;childLayout=stackLayout;horizontal=1;startSize=33.142857142857146;horizontalStack=0;resizeParent=1;resizeParentMax=0;resizeLast=0;collapsible=0;marginBottom=0;" vertex="1" parent="1">
          <mxGeometry x="385" y="101" width="205" height="239.14285714285714" as="geometry" />
        </mxCell>
        <mxCell id="vk-0SVEYOAHC3kKjKISw-8" value="+String bookingCode" style="text;strokeColor=none;fillColor=none;align=left;verticalAlign=top;spacingLeft=4;spacingRight=4;overflow=hidden;rotatable=0;points=[[0,0.5],[1,0.5]];portConstraint=eastwest;" vertex="1" parent="vk-0SVEYOAHC3kKjKISw-7">
          <mxGeometry y="33.142857142857146" width="205" height="33" as="geometry" />
        </mxCell>
        <mxCell id="vk-0SVEYOAHC3kKjKISw-9" value="+Date checkInDate" style="text;strokeColor=none;fillColor=none;align=left;verticalAlign=top;spacingLeft=4;spacingRight=4;overflow=hidden;rotatable=0;points=[[0,0.5],[1,0.5]];portConstraint=eastwest;" vertex="1" parent="vk-0SVEYOAHC3kKjKISw-7">
          <mxGeometry y="66.14285714285714" width="205" height="33" as="geometry" />
        </mxCell>
        <mxCell id="vk-0SVEYOAHC3kKjKISw-10" value="+Date checkOutDate" style="text;strokeColor=none;fillColor=none;align=left;verticalAlign=top;spacingLeft=4;spacingRight=4;overflow=hidden;rotatable=0;points=[[0,0.5],[1,0.5]];portConstraint=eastwest;" vertex="1" parent="vk-0SVEYOAHC3kKjKISw-7">
          <mxGeometry y="99.14285714285714" width="205" height="33" as="geometry" />
        </mxCell>
        <mxCell id="vk-0SVEYOAHC3kKjKISw-11" value="+int numberOfGuests" style="text;strokeColor=none;fillColor=none;align=left;verticalAlign=top;spacingLeft=4;spacingRight=4;overflow=hidden;rotatable=0;points=[[0,0.5],[1,0.5]];portConstraint=eastwest;" vertex="1" parent="vk-0SVEYOAHC3kKjKISw-7">
          <mxGeometry y="132.14285714285714" width="205" height="33" as="geometry" />
        </mxCell>
        <mxCell id="vk-0SVEYOAHC3kKjKISw-12" style="line;strokeWidth=1;fillColor=none;align=left;verticalAlign=middle;spacingTop=-1;spacingLeft=3;spacingRight=3;rotatable=0;labelPosition=right;points=[];portConstraint=eastwest;strokeColor=inherit;" vertex="1" parent="vk-0SVEYOAHC3kKjKISw-7">
          <mxGeometry y="165.14285714285714" width="205" height="8" as="geometry" />
        </mxCell>
        <mxCell id="vk-0SVEYOAHC3kKjKISw-13" value="+changeBooking()" style="text;strokeColor=none;fillColor=none;align=left;verticalAlign=top;spacingLeft=4;spacingRight=4;overflow=hidden;rotatable=0;points=[[0,0.5],[1,0.5]];portConstraint=eastwest;" vertex="1" parent="vk-0SVEYOAHC3kKjKISw-7">
          <mxGeometry y="173.14285714285714" width="205" height="33" as="geometry" />
        </mxCell>
        <mxCell id="vk-0SVEYOAHC3kKjKISw-14" value="+cancelBooking()" style="text;strokeColor=none;fillColor=none;align=left;verticalAlign=top;spacingLeft=4;spacingRight=4;overflow=hidden;rotatable=0;points=[[0,0.5],[1,0.5]];portConstraint=eastwest;" vertex="1" parent="vk-0SVEYOAHC3kKjKISw-7">
          <mxGeometry y="206.14285714285714" width="205" height="33" as="geometry" />
        </mxCell>
        <mxCell id="vk-0SVEYOAHC3kKjKISw-15" value="RoomType" style="swimlane;fontStyle=1;align=center;verticalAlign=top;childLayout=stackLayout;horizontal=1;startSize=35.55555555555556;horizontalStack=0;resizeParent=1;resizeParentMax=0;resizeLast=0;collapsible=0;marginBottom=0;" vertex="1" parent="1">
          <mxGeometry x="711" y="252" width="197" height="161.55555555555554" as="geometry" />
        </mxCell>
        <mxCell id="vk-0SVEYOAHC3kKjKISw-16" value="+String typeName" style="text;strokeColor=none;fillColor=none;align=left;verticalAlign=top;spacingLeft=4;spacingRight=4;overflow=hidden;rotatable=0;points=[[0,0.5],[1,0.5]];portConstraint=eastwest;" vertex="1" parent="vk-0SVEYOAHC3kKjKISw-15">
          <mxGeometry y="35.55555555555556" width="197" height="36" as="geometry" />
        </mxCell>
        <mxCell id="vk-0SVEYOAHC3kKjKISw-17" value="+int maxGuests" style="text;strokeColor=none;fillColor=none;align=left;verticalAlign=top;spacingLeft=4;spacingRight=4;overflow=hidden;rotatable=0;points=[[0,0.5],[1,0.5]];portConstraint=eastwest;" vertex="1" parent="vk-0SVEYOAHC3kKjKISw-15">
          <mxGeometry y="71.55555555555556" width="197" height="36" as="geometry" />
        </mxCell>
        <mxCell id="vk-0SVEYOAHC3kKjKISw-18" value="+String description" style="text;strokeColor=none;fillColor=none;align=left;verticalAlign=top;spacingLeft=4;spacingRight=4;overflow=hidden;rotatable=0;points=[[0,0.5],[1,0.5]];portConstraint=eastwest;" vertex="1" parent="vk-0SVEYOAHC3kKjKISw-15">
          <mxGeometry y="107.55555555555556" width="197" height="36" as="geometry" />
        </mxCell>
        <mxCell id="vk-0SVEYOAHC3kKjKISw-19" style="line;strokeWidth=1;fillColor=none;align=left;verticalAlign=middle;spacingTop=-1;spacingLeft=3;spacingRight=3;rotatable=0;labelPosition=right;points=[];portConstraint=eastwest;strokeColor=inherit;" vertex="1" parent="vk-0SVEYOAHC3kKjKISw-15">
          <mxGeometry y="143.55555555555554" width="197" height="18" as="geometry" />
        </mxCell>
        <mxCell id="vk-0SVEYOAHC3kKjKISw-20" value="Room" style="swimlane;fontStyle=1;align=center;verticalAlign=top;childLayout=stackLayout;horizontal=1;startSize=44.8;horizontalStack=0;resizeParent=1;resizeParentMax=0;resizeLast=0;collapsible=0;marginBottom=0;" vertex="1" parent="1">
          <mxGeometry x="391" y="391" width="192" height="111.8" as="geometry" />
        </mxCell>
        <mxCell id="vk-0SVEYOAHC3kKjKISw-21" value="+String roomNumber" style="text;strokeColor=none;fillColor=none;align=left;verticalAlign=top;spacingLeft=4;spacingRight=4;overflow=hidden;rotatable=0;points=[[0,0.5],[1,0.5]];portConstraint=eastwest;" vertex="1" parent="vk-0SVEYOAHC3kKjKISw-20">
          <mxGeometry y="44.8" width="192" height="45" as="geometry" />
        </mxCell>
        <mxCell id="vk-0SVEYOAHC3kKjKISw-22" style="line;strokeWidth=1;fillColor=none;align=left;verticalAlign=middle;spacingTop=-1;spacingLeft=3;spacingRight=3;rotatable=0;labelPosition=right;points=[];portConstraint=eastwest;strokeColor=inherit;" vertex="1" parent="vk-0SVEYOAHC3kKjKISw-20">
          <mxGeometry y="89.8" width="192" height="22" as="geometry" />
        </mxCell>
        <mxCell id="vk-0SVEYOAHC3kKjKISw-23" value="Receptionist" style="swimlane;fontStyle=1;align=center;verticalAlign=top;childLayout=stackLayout;horizontal=1;startSize=47.2;horizontalStack=0;resizeParent=1;resizeParentMax=0;resizeLast=0;collapsible=0;marginBottom=0;" vertex="1" parent="1">
          <mxGeometry x="20" y="262" width="266" height="102.2" as="geometry" />
        </mxCell>
        <mxCell id="vk-0SVEYOAHC3kKjKISw-24" style="line;strokeWidth=1;fillColor=none;align=left;verticalAlign=middle;spacingTop=-1;spacingLeft=3;spacingRight=3;rotatable=0;labelPosition=right;points=[];portConstraint=eastwest;strokeColor=inherit;" vertex="1" parent="vk-0SVEYOAHC3kKjKISw-23">
          <mxGeometry y="47.2" width="266" height="8" as="geometry" />
        </mxCell>
        <mxCell id="vk-0SVEYOAHC3kKjKISw-25" value="+findBooking(bookingCode)" style="text;strokeColor=none;fillColor=none;align=left;verticalAlign=top;spacingLeft=4;spacingRight=4;overflow=hidden;rotatable=0;points=[[0,0.5],[1,0.5]];portConstraint=eastwest;" vertex="1" parent="vk-0SVEYOAHC3kKjKISw-23">
          <mxGeometry y="55.2" width="266" height="47" as="geometry" />
        </mxCell>
        <mxCell id="vk-0SVEYOAHC3kKjKISw-26" value="makes" style="curved=1;startArrow=none;endArrow=none;exitX=1;exitY=0.5;entryX=0;entryY=0.2;rounded=0;" edge="1" parent="1" source="vk-0SVEYOAHC3kKjKISw-1" target="vk-0SVEYOAHC3kKjKISw-7">
          <mxGeometry relative="1" as="geometry">
            <Array as="points">
              <mxPoint x="335" y="116" />
            </Array>
          </mxGeometry>
        </mxCell>
        <mxCell id="vk-0SVEYOAHC3kKjKISw-27" value="1" style="edgeLabel;resizable=0;labelBackgroundColor=none;fontSize=12;align=left;verticalAlign=bottom;" vertex="1" parent="vk-0SVEYOAHC3kKjKISw-26">
          <mxGeometry x="-1" relative="1" as="geometry" />
        </mxCell>
        <mxCell id="vk-0SVEYOAHC3kKjKISw-28" value="0..*" style="edgeLabel;resizable=0;labelBackgroundColor=none;fontSize=12;align=right;verticalAlign=top;" vertex="1" parent="vk-0SVEYOAHC3kKjKISw-26">
          <mxGeometry x="1" relative="1" as="geometry" />
        </mxCell>
        <mxCell id="vk-0SVEYOAHC3kKjKISw-29" value="specifies" style="curved=1;startArrow=none;endArrow=none;exitX=1;exitY=0.5;entryX=0;entryY=0.07;rounded=0;" edge="1" parent="1" source="vk-0SVEYOAHC3kKjKISw-7" target="vk-0SVEYOAHC3kKjKISw-15">
          <mxGeometry relative="1" as="geometry">
            <Array as="points">
              <mxPoint x="650" y="221" />
            </Array>
          </mxGeometry>
        </mxCell>
        <mxCell id="vk-0SVEYOAHC3kKjKISw-30" value="1" style="edgeLabel;resizable=0;labelBackgroundColor=none;fontSize=12;align=left;verticalAlign=bottom;" vertex="1" parent="vk-0SVEYOAHC3kKjKISw-29">
          <mxGeometry x="-1" relative="1" as="geometry" />
        </mxCell>
        <mxCell id="vk-0SVEYOAHC3kKjKISw-31" value="1" style="edgeLabel;resizable=0;labelBackgroundColor=none;fontSize=12;align=right;verticalAlign=top;" vertex="1" parent="vk-0SVEYOAHC3kKjKISw-29">
          <mxGeometry x="1" relative="1" as="geometry" />
        </mxCell>
        <mxCell id="vk-0SVEYOAHC3kKjKISw-32" value="is of type" style="curved=1;startArrow=none;endArrow=none;exitX=1;exitY=0.5;entryX=0;entryY=0.92;rounded=0;" edge="1" parent="1" source="vk-0SVEYOAHC3kKjKISw-20" target="vk-0SVEYOAHC3kKjKISw-15">
          <mxGeometry relative="1" as="geometry">
            <Array as="points">
              <mxPoint x="650" y="451" />
            </Array>
          </mxGeometry>
        </mxCell>
        <mxCell id="vk-0SVEYOAHC3kKjKISw-33" value="1" style="edgeLabel;resizable=0;labelBackgroundColor=none;fontSize=12;align=left;verticalAlign=bottom;" vertex="1" parent="vk-0SVEYOAHC3kKjKISw-32">
          <mxGeometry x="-1" relative="1" as="geometry" />
        </mxCell>
        <mxCell id="vk-0SVEYOAHC3kKjKISw-34" value="1" style="edgeLabel;resizable=0;labelBackgroundColor=none;fontSize=12;align=right;verticalAlign=top;" vertex="1" parent="vk-0SVEYOAHC3kKjKISw-32">
          <mxGeometry x="1" relative="1" as="geometry" />
        </mxCell>
        <mxCell id="vk-0SVEYOAHC3kKjKISw-35" value="uses" style="curved=1;startArrow=none;endArrow=block;endSize=16;endFill=0;exitX=1;exitY=0.5;entryX=0;entryY=0.79;rounded=0;" edge="1" parent="1" source="vk-0SVEYOAHC3kKjKISw-23" target="vk-0SVEYOAHC3kKjKISw-7">
          <mxGeometry relative="1" as="geometry">
            <Array as="points">
              <mxPoint x="335" y="325" />
            </Array>
          </mxGeometry>
        </mxCell>
      </root>
    </mxGraphModel>
  </diagram>
</mxfile>
